HIERARCHY
ROOT Hips
{
	OFFSET -99.813 92.66 37.7939
	CHANNELS 6 Xposition Yposition Zposition Zrotation Xrotation Yrotation
	JOINT Spine
	{
		OFFSET 0 9.61096 0
		CHANNELS 3 Zrotation Xrotation Yrotation
		JOINT Spine1
		{
			OFFSET 0 9.61096 0
			CHANNELS 3 Zrotation Xrotation Yrotation
			JOINT Spine2
			{
				OFFSET 0 9.61096 0
				CHANNELS 3 Zrotation Xrotation Yrotation
				JOINT Spine3
				{
					OFFSET 0 9.61096 0
					CHANNELS 3 Zrotation Xrotation Yrotation
					JOINT LeftShoulder
					{
						OFFSET 1.5 7.45162 0
						CHANNELS 3 Zrotation Xrotation Yrotation
						JOINT LeftArm
						{
							OFFSET 13.8827 0 0
							CHANNELS 3 Zrotation Xrotation Yrotation
							JOINT LeftForeArm
							{
								OFFSET 27.9625 0 0
								CHANNELS 3 Zrotation Xrotation Yrotation
								JOINT LeftHand
								{
									OFFSET 22.178 0 0
									CHANNELS 3 Zrotation Xrotation Yrotation
									End Site
									{
										OFFSET 10 0 0
									}
								}
							}
						}
					}
					JOINT RightShoulder
					{
						OFFSET -1.49999 7.45162 0
						CHANNELS 3 Zrotation Xrotation Yrotation
						JOINT RightArm
						{
							OFFSET -13.8827 0 0
							CHANNELS 3 Zrotation Xrotation Yrotation
							JOINT RightForeArm
							{
								OFFSET -27.9625 0 0
								CHANNELS 3 Zrotation Xrotation Yrotation
								JOINT RightHand
								{
									OFFSET -22.178 0 0
									CHANNELS 3 Zrotation Xrotation Yrotation
									End Site
									{
										OFFSET -10 0 0
									}
								}
							}
						}
					}
					JOINT Neck
					{
						OFFSET 0 9.61096 0
						CHANNELS 3 Zrotation Xrotation Yrotation
						JOINT Head
						{
							OFFSET 0 9.64467 0
							CHANNELS 3 Zrotation Xrotation Yrotation
							End Site
							{
								OFFSET 0 15 0
							}
						}
					}
				}
			}
		}
	}
	JOINT LeftUpLeg
	{
		OFFSET 11.7021 0 0
		CHANNELS 3 Zrotation Xrotation Yrotation
		JOINT LeftLeg
		{
			OFFSET 0 -46.0068 0
			CHANNELS 3 Zrotation Xrotation Yrotation
			JOINT LeftFoot
			{
				OFFSET 0 -37.7985 0
				CHANNELS 3 Zrotation Xrotation Yrotation
				JOINT LeftToeBase
				{
					OFFSET 0 -6.40715 11.0975
					CHANNELS 3 Zrotation Xrotation Yrotation
					End Site
					{
						OFFSET 0 0 5
					}
				}
			}
		}
	}
	JOINT RightUpLeg
	{
		OFFSET -11.7021 0 0
		CHANNELS 3 Zrotation Xrotation Yrotation
		JOINT RightLeg
		{
			OFFSET 0 -46.0068 0
			CHANNELS 3 Zrotation Xrotation Yrotation
			JOINT RightFoot
			{
				OFFSET 0 -37.7985 0
				CHANNELS 3 Zrotation Xrotation Yrotation
				JOINT RightToeBase
				{
					OFFSET 0 -6.40715 11.0975
					CHANNELS 3 Zrotation Xrotation Yrotation
					End Site
					{
						OFFSET 0 0 5
					}
				}
			}
		}
	}
}
MOTION
Frames: 16
Frame Time: 0.0111111
-142.801 90.4262 140.689 174.937 -172.637 67.2406 176.934 176.74 179.171 176.934 176.74 179.171 176.934 176.74 179.171 176.934 176.74 179.171 176.205 179.287 179.114 164.658 157.982 171.405 164.05 -151.289 179.001 96.7278 -169.325 135.999 4.01496 -6.92868 9.89708 169.02 -148.227 -146.017 42.7714 -69.2921 55.0539 45.9349 -30.4853 26.3885 176.591 -160.591 114.219 5.33533 7.37629 -8.57657 5.09985 -8.6009 13.9716 174.283 150.442 -178.553 161.158 -161.141 -144.754 0.118383 -5.68227 0.123012 157.404 -155.447 152.065 178.3 154.8 -179.111 172.958 173.627 146.175 0.121264 -9.84878 0.130231
-142.769 90.4218 139.489 174.159 -172.356 65.1735 176.787 176.724 179.137 176.787 176.724 179.137 176.787 176.724 179.137 176.787 176.724 179.137 176.807 179.396 179.114 164.014 158.453 172.113 163.974 -150.073 178.854 97.1575 -169.271 136.263 4.23136 -6.93742 9.89726 168.632 -147.842 -146.941 43.4412 -69.3042 55.8169 45.8849 -30.308 26.3149 176.666 -160.635 114.176 5.31764 7.47667 -8.15653 4.99877 -6.90141 12.9291 174.321 151.759 -178.571 159.825 -161.526 -142.923 0.119644 -6.26608 0.123143 158.244 -156.212 151.065 178.302 154.919 -179.112 172.539 174.873 146.2 0.120266 -9.41549 0.130064
-142.503 90.5093 138.31 174.14 -172.411 62.8084 176.92 176.865 179.152 176.92 176.865 179.152 176.92 176.865 179.152 176.92 176.865 179.152 176.453 179.367 179.114 163.776 158.903 172.874 163.973 -149.123 178.749 96.5275 -169.338 135.939 4.13714 -6.81019 9.89459 168.213 -147.439 -147.528 43.978 -69.3068 56.4772 46.2862 -30.5923 27.068 175.881 -160.827 113.924 5.50893 7.97769 -7.68128 5.57775 -5.93903 11.7363 174.346 152.643 -178.582 157.826 -161.675 -141.131 0.122185 -7.43875 0.123446 158.985 -155.453 149.63 178.296 154.521 -179.109 175.857 176.233 143.731 0.119393 -9.03542 0.129924
-142.141 90.6545 137.103 174.477 -172.645 60.1847 177.187 177.042 179.237 177.187 177.042 179.237 177.187 177.042 179.237 177.187 177.042 179.237 175.721 179.313 179.114 163.605 159.237 173.598 163.809 -147.732 178.453 96.6623 -169.292 135.828 4.06308 -6.60356 9.89035 167.317 -147.306 -148.141 44.9623 -69.5799 57.7756 46.1603 -30.7509 27.0929 174.863 -160.987 113.698 5.92601 8.39093 -7.46278 6.58861 -5.3482 10.544 174.357 153.033 -178.587 155.166 -161.884 -139.46 0.125561 -8.98672 0.123928 159.442 -153.836 148.093 178.274 153.258 -179.099 179.472 178.983 142.992 0.128207 -12.8284 0.131596
-141.882 90.6991 135.729 174.245 -172.788 57.9941 177.221 177.056 179.204 177.221 177.056 179.204 177.221 177.056 179.204 177.221 177.056 179.204 176.175 179.295 179.114 162.811 159.596 174.452 163.7 -146.492 178.183 96.1076 -169.596 135.486 4.15641 -6.44553 9.8872 166.994 -146.93 -148.702 45.7808 -69.6802 58.7438 45.0443 -30.2593 25.8224 174.98 -160.969 113.738 5.95047 8.34677 -7.08343 7.32952 -4.49147 8.68816 174.354 152.915 -178.586 151.84 -161.556 -137.783 0.128531 -10.3375 0.124427 160.509 -153.62 146.773 178.272 153.15 -179.098 176.725 179.345 148.954 0.118844 -8.79648 0.129839
-141.662 90.7207 134.33 173.842 -172.897 55.7754 177.194 177.038 179.186 177.194 177.038 179.186 177.194 177.038 179.186 177.194 177.038 179.186 176.939 179.305 179.114 161.855 159.98 175.209 163.529 -145.807 177.984 95.6262 -169.552 134.963 4.16905 -6.46617 9.88761 166.853 -147.018 -149.347 46.0407 -69.5188 59.3135 45.8487 -30.7242 27.0314 175.297 -160.925 113.816 5.83226 8.31177 -6.74881 7.9217 -3.66097 6.87308 174.34 152.43 -178.58 148.908 -161.54 -135.915 0.129402 -10.7318 0.124586 162.144 -153.754 146.101 178.282 153.709 -179.103 173.139 175.939 156.086 0.113584 -6.48955 0.129139
-141.489 90.7351 132.898 173.217 -173.005 53.4761 177.082 176.968 179.172 177.082 176.968 179.172 177.082 176.968 179.172 177.082 176.968 179.172 177.675 179.171 179.114 161.228 160.045 175.967 163.372 -145.241 177.764 95.2561 -169.712 134.679 4.25874 -6.46128 9.88751 166.866 -147.225 -149.864 47.3478 -69.6028 61.0535 45.6714 -30.5927 26.6191 175.813 -161.038 113.677 5.81097 8.1868 -6.27529 8.34198 -2.766 5.41653 174.321 151.758 -178.571 146.696 -162.301 -133.705 0.128272 -10.2203 0.124381 163.594 -154.205 145.781 178.294 154.421 -179.108 169.681 175.338 159.625 0.114896 -7.06727 0.129294
-141.057 90.8639 131.537 173.534 -173.377 50.8125 177.258 177.036 179.268 177.258 177.036 179.268 177.258 177.036 179.268 177.258 177.036 179.268 177.504 178.891 179.114 161.074 160.101 176.523 163.196 -144.448 177.601 95.4452 -169.79 134.829 4.25005 -6.12605 9.88107 166.43 -147.127 -150.446 48.3663 -69.6458 62.227 46.3826 -30.6575 26.988 175.826 -160.97 113.782 5.85062 8.3906 -6.03115 9.5891 -2.74232 4.49836 174.29 150.655 -178.556 143.961 -163.179 -131.413 0.128331 -10.2471 0.124391 165.167 -153.348 145.954 178.272 153.142 -179.098 172.512 178.533 160.05 0.112423 -5.97721 0.129013
-140.515 91.0032 130.146 174.066 -173.936 48.2749 177.52 177.052 179.318 177.52 177.052 179.318 177.52 177.052 179.318 177.52 177.052 179.318 177.109 178.798 179.114 160.961 160.342 177.246 163.622 -144.764 177.72 96.127 -169.819 135.322 4.12271 -6.03524 9.87938 166.342 -147.083 -150.739 48.7797 -69.4193 62.8958 46.3877 -30.8285 27.2744 175.856 -160.689 114.178 5.85667 8.55268 -6.00018 11.1237 -2.99172 3.54011 174.256 149.506 -178.539 141.834 -165.796 -128.836 0.128915 -10.5115 0.124496 167.188 -152.6 147.378 178.246 151.718 -179.086 177.87 -177.661 159.945 0.113643 -6.51556 0.129146
-140.06 91.0297 128.63 174.232 -174.559 46.1126 177.663 177.005 179.324 177.663 177.005 179.324 177.663 177.005 179.324 177.663 177.005 179.324 177.446 178.773 179.114 160.596 160.278 177.68 163.68 -144.395 177.89 97.896 -169.59 136.488 3.81556 -6.00755 9.87888 166.675 -147.256 -151.167 50.2639 -69.4001 64.5019 46.8558 -31.119 27.4183 176.136 -160.904 113.892 5.92773 8.55654 -5.51217 12.2531 -2.91239 2.43245 174.24 148.966 -178.531 142.24 -172.542 -126.478 0.126263 -9.3067 0.12404 169.557 -152.755 148.534 178.241 151.428 -179.084 177.862 -176.162 161.145 0.110589 -5.16582 0.128835
-139.757 90.9198 127.056 173.834 -175.244 44.31 177.675 176.835 179.248 177.675 176.835 179.248 177.675 176.835 179.248 177.675 176.835 179.248 178.513 178.991 179.114 159.66 160.295 178.146 163.677 -144.178 178.014 97.5206 -169.68 136.374 3.20706 -6.3283 9.88491 167.781 -147.303 -151.251 50.4609 -69.1847 64.4996 46.9753 -31.186 27.6977 176.453 -161.409 113.217 5.89903 8.29783 -4.74688 12.2862 -2.46939 1.89103 174.222 148.375 -178.521 148.947 175.827 -127.956 0.120044 -6.45136 0.123187 171.831 -153.933 149.332 178.256 152.287 -179.091 173.47 -177.362 163.559 0.108906 -4.41948 0.128694
-139.427 90.9044 125.637 173.275 -175.272 42.5553 177.439 176.748 179.184 177.439 176.748 179.184 177.439 176.748 179.184 177.439 176.748 179.184 179.627 178.904 179.114 159.202 160.372 178.364 163.587 -144.008 178.006 97.0691 -169.713 136.006 3.47002 -6.49596 9.8882 168.178 -147.331 -151.446 50.6634 -69.146 64.4801 47.3567 -31.3846 27.7705 177.27 -161.555 113.033 5.71913 8.07873 -4.39123 11.36 -3.6276 1.36237 174.091 144.259 -178.449 156.076 171.632 -137.562 0.113433 -3.38049 0.122621 173.203 -154.663 150.559 178.27 153.075 -179.098 171.803 -178.209 164.192 0.111745 -5.6774 0.128944
-138.985 90.9308 124.361 173.067 -175.22 40.8173 177.338 176.715 179.14 177.338 176.715 179.14 177.338 176.715 179.14 177.338 176.715 179.14 0.0385965 1.13074 -0.885827 159.204 160.439 178.388 163.538 -143.825 178.106 96.9337 -169.68 135.781 3.3845 -6.52342 9.88874 168.299 -147.555 -151.858 51.2204 -69.1876 65.0962 46.9193 -31.3084 27.5929 177.365 -161.854 112.622 5.89589 8.00664 -4.13469 10.7457 -5.55034 -0.133086 173.943 140.061 -178.358 157.511 172.268 -144.294 0.114682 -3.96266 0.122701 174.454 -154.724 152.121 178.265 152.789 -179.095 172.471 -177.479 164.341 0.112109 -5.83847 0.128981
-138.595 90.8987 123.091 172.655 -175.17 39.2619 177.176 176.638 179.057 177.176 176.638 179.057 177.176 176.638 179.057 177.176 176.638 179.057 0.764565 1.12975 -0.885827 158.983 160.305 178.357 163.382 -142.935 178.005 96.9382 -169.64 135.855 3.1892 -6.46434 9.88757 168.535 -147.683 -152.252 50.7993 -69.3213 64.8128 45.834 -30.3272 26.5938 177.67 -161.931 112.52 5.88952 7.64425 -3.98966 9.77397 -7.68015 -1.41357 173.786 136.116 -178.253 157.072 174.007 -146.689 0.118186 -5.59133 0.122992 175.651 -155.112 153.596 178.265 152.795 -179.095 170.872 -177.348 164.721 0.10966 -4.7542 0.128755
-138.265 90.8562 121.841 172.221 -175.205 37.5774 177.066 176.548 179.023 177.066 176.548 179.023 177.066 176.548 179.023 177.066 176.548 179.023 1.23372 1.1067 -0.88582 158.86 160.605 178.304 163.11 -142.258 177.864 97.305 -169.489 136.227 2.82743 -6.53315 9.88894 168.748 -147.839 -152.596 49.6864 -69.3357 63.821 46.7142 -30.5611 27.5706 177.711 -161.98 112.458 5.88681 7.35805 -3.80858 8.55145 -9.5479 -2.52212 173.649 133.045 -178.155 157.575 175.418 -147.435 0.120411 -6.621 0.123229 176.78 -155.52 155.055 178.264 152.739 -179.095 169.606 -177.339 165.185 0.109075 -4.49448 0.128707
-137.914 90.8028 120.604 171.836 -175.251 35.7774 176.982 176.47 179.042 176.982 176.47 179.042 176.982 176.47 179.042 176.982 176.47 179.042 1.52261 1.02848 -0.885797 158.875 160.779 178.126 163.083 -141.743 177.827 97.0523 -169.493 136.385 2.63102 -6.32033 9.88476 168.419 -147.874 -153.001 49.2526 -69.6108 63.4634 46.8971 -30.2548 27.5891 177.709 -161.925 112.548 5.72612 7.02483 -3.55642 7.23655 -11.5258 -3.46512 173.515 130.348 -178.055 158.917 177.233 -148.585 0.120053 -6.45546 0.123188 178 -155.992 156.835 178.266 152.832 -179.096 168.682 -177.712 165.397 0.110763 -5.243 0.128851
